Coordinates
version=1
nRows=19
nColumns=36
inDegrees=yes

Units are S.I. units (second, meters, Newtons, ...)
If the header above contains a line with 'inDegrees', this indicates whether rotational values are in degrees (yes) or radians (no).

endheader
time	pelvis_tilt	pelvis_list	pelvis_rotation	pelvis_tx	pelvis_ty	pelvis_tz	hip_flexion_r	hip_adduction_r	hip_rotation_r	knee_angle_r	knee_angle_r_beta	ankle_angle_r	subtalar_angle_r	mtp_angle_r	hip_flexion_l	hip_adduction_l	hip_rotation_l	knee_angle_l	knee_angle_l_beta	ankle_angle_l	subtalar_angle_l	mtp_angle_l	lumbar_extension	lumbar_bending	lumbar_rotation	arm_flex_r	arm_add_r	arm_rot_r	elbow_flex_r	pro_sup_r	arm_flex_l	arm_add_l	arm_rot_l	elbow_flex_l	pro_sup_l
      1.95000000	      1.70018918	     -0.02696545	      0.30509433	     -0.04869478	      1.15713249	      0.01798002	     -2.66734565	     -0.07051606	      0.47978403	      1.25156998	      0.02184402	      3.28295417	    -15.58389064	     -7.49999987	     -0.86313269	      1.09653212	      1.19438142	      3.82832155	      0.06681682	     -0.59465655	    -19.66081948	     -7.49999987	     -4.04330396	     -3.34789473	     -0.28701973	      4.89538916	    -12.80538873	     46.70404629	     34.87859809	     63.21107737	      6.70904980	    -11.59297196	     50.63710873	     28.53699595	     49.40199810
      1.96666670	      1.71835328	      0.00790824	      0.37036558	     -0.04892285	      1.15745603	      0.01810223	     -2.73180711	     -0.13782307	      0.27322667	      1.29649449	      0.02262810	      3.59464939	    -14.88743784	     -7.49999987	     -0.85224411	      1.11136322	      0.88702520	      3.91296977	      0.06829421	     -0.35457411	    -19.07983399	     -7.49999987	     -4.12532080	     -3.39602987	     -0.36084140	      4.88954635	    -12.73228799	     46.33841574	     34.85817643	     63.01330000	      6.61946286	    -11.67653094	     50.42441648	     28.74792158	     49.68766503
      1.98333330	      1.70149236	      0.00243893	      0.48316530	     -0.04953683	      1.15779581	      0.01772676	     -2.76559576	     -0.15898823	      0.12611898	      1.34311990	      0.02344186	      3.66568324	    -14.57145190	     -7.49999987	     -0.76762217	      1.09486124	      0.80232827	      4.06073220	      0.07087315	     -0.31670358	    -19.01513825	     -7.49999987	     -4.21456357	     -3.38738150	     -0.53490739	      4.94367398	    -12.62446972	     46.03747306	     34.76271187	     62.90967364	      6.58631758	    -11.62670450	     50.20777270	     28.48789844	     50.02995016
      2.00000000	      1.53375588	      0.00736430	      0.44347024	     -0.04615119	      1.15349057	      0.01842258	     -2.63927717	     -0.19828758	      0.48737300	      1.41318525	      0.02466474	      3.42069628	    -15.25258962	     -7.49999987	     -0.62151459	      1.12233112	      1.03809340	      4.09289275	      0.07143445	     -0.91089089	    -19.96269165	     -7.49999987	     -3.88541778	     -3.42069600	     -0.43915813	      4.76625072	    -12.83469717	     46.54752691	     35.26626986	     63.80996800	      6.60225277	    -11.81583040	     51.43782423	     28.91587838	     48.08551706
      2.01666670	      1.52220056	     -0.00825142	      0.43318742	     -0.04973987	      1.15877706	      0.01695589	     -2.62843475	     -0.21416224	      0.48285940	      1.40715765	      0.02455953	      3.42297303	    -15.25559785	     -7.49999987	     -0.60127783	      1.12419959	      1.03261554	      4.08552177	      0.07130581	     -0.90961299	    -19.96465660	     -7.49999987	     -3.88442538	     -3.42459312	     -0.44041483	      4.76562649	    -12.83430502	     46.54679755	     35.26626869	     63.80996568	      6.60210087	    -11.81672888	     51.43820918	     28.91588882	     48.08420228
      2.03333330	      1.41286043	      0.00212169	      0.38587640	     -0.05080812	      1.16004404	      0.01729690	     -2.45575241	     -0.26636273	      0.44941933	      1.43884848	      0.02511264	      3.08106998	    -15.57761325	     -7.49999987	     -0.44075832	      1.16036517	      0.85470610	      4.15950044	      0.07259698	     -1.20462565	    -20.31713899	     -7.49999987	     -3.85980735	     -3.44416799	     -0.43033264	      4.84661525	    -12.74905422	     46.33603613	     35.08561368	     63.71718730	      6.69807536	    -11.66454832	     51.46693309	     28.58947247	     47.70736793
      2.05000000	      1.35187225	     -0.00079610	      0.43532920	     -0.04885087	      1.16013849	      0.01645737	     -2.38685604	     -0.28942889	      0.36818692	      1.43073130	      0.02497097	      2.82399529	    -15.74123198	     -7.49999987	     -0.35658828	      1.16774227	      0.77216531	      4.18556921	      0.07305196	     -1.43133003	    -20.49279694	     -7.49999987	     -3.82125226	     -3.42504000	     -0.45357633	      4.89817724	    -12.79971972	     46.42843906	     34.99935685	     63.84250238	      6.81837239	    -11.62911082	     51.81019422	     28.46251422	     46.93033017
      2.06666670	      1.51378164	      0.01031208	      0.42794647	     -0.04779807	      1.15975466	      0.01684452	     -2.57897092	     -0.32923023	     -0.19209071	      1.39346946	      0.02432063	      3.20952678	    -14.72007756	     -7.49999987	     -0.57335101	      1.16770328	      0.28600195	      4.17866739	      0.07293150	     -1.20552717	    -19.81080665	     -7.49999987	     -4.07214702	     -3.42148929	     -0.42487716	      4.82802223	    -12.69574637	     45.87345644	     34.97808610	     63.37609166	      6.71663198	    -11.59276415	     51.10345578	     28.56926674	     48.02982308
      2.08333330	      1.42198925	     -0.00947434	      0.49646123	     -0.04774002	      1.16030541	      0.01622089	     -2.51933641	     -0.33210648	     -0.10766887	      1.32480607	      0.02312223	      2.71511640	    -15.22921305	     -7.49999987	     -0.49307264	      1.17313084	      0.51219542	      4.15909653	      0.07258993	     -1.68155970	    -20.47535019	     -7.49999987	     -3.95701464	     -3.35002830	     -0.49447031	      4.83130255	    -12.77193388	     45.99181320	     35.05692896	     63.20923284	      6.65955542	    -11.41667079	     50.69082242	     28.22661749	     48.95627965
      2.10000000	      1.37459217	      0.00416550	      0.47093124	     -0.04796975	      1.16165721	      0.01646624	     -2.46909785	     -0.36758969	      0.02182741	      1.29361225	      0.02257779	      2.40285543	    -15.61769310	     -7.49999987	     -0.49337479	      1.20600896	      0.51529038	      4.07958509	      0.07120219	     -1.98724830	    -20.79743566	     -7.49999987	     -3.86944489	     -3.35022135	     -0.47268715	      4.93088100	    -12.82041980	     46.51588599	     35.04262199	     63.41337494	      6.65848373	    -11.42284899	     50.93050715	     28.19496822	     48.68096497
      2.11666670	      1.48850633	      0.01369373	      0.58720463	     -0.04694793	      1.15945784	      0.01571130	     -2.65527169	     -0.39517368	     -0.51301541	      1.24196671	      0.02167641	      2.75682582	    -14.73684902	     -7.49999987	     -0.63055759	      1.22854668	      0.34922511	      4.06828330	      0.07100494	     -1.68981074	    -20.21023022	     -7.49999987	     -4.00804464	     -3.33911474	     -0.58953051	      4.96092716	    -12.60586650	     46.13911040	     34.57416630	     63.12088964	      6.62020259	    -11.35171009	     50.47794258	     28.05201553	     49.25129825
      2.13333330	      1.36495910	      0.03213836	      0.50521837	     -0.04837805	      1.15980680	      0.01622844	     -2.48247069	     -0.41538067	     -0.12731600	      1.20466921	      0.02102544	      2.35309497	    -15.54363811	     -7.49999987	     -0.54379771	      1.28561613	      0.49849875	      3.93152551	      0.06861806	     -2.03109423	    -20.79953596	     -7.49999987	     -3.89208994	     -3.34506554	     -0.49393574	      5.08893517	    -12.77372071	     46.67646107	     34.91720845	     63.31938230	      6.62327342	    -11.37373324	     50.86012891	     28.11669921	     49.05398962
      2.15000000	      1.35558930	      0.05188656	      0.54548899	     -0.04762665	      1.15793172	      0.01619547	     -2.45780817	     -0.41668057	     -0.10719234	      1.13890595	      0.01987766	      2.54066949	    -15.28842342	     -7.49999987	     -0.51474751	      1.32473743	      0.45683275	      3.87864373	      0.06769510	     -1.95466179	    -20.53577959	     -7.49999987	     -3.90046943	     -3.43001601	     -0.43891400	      5.05177658	    -12.69258591	     46.85522467	     34.68945468	     64.15669899	      7.02046251	    -11.60909911	     53.58120579	     28.12831965	     43.61864020
      2.16666670	      1.32935503	      0.04945446	      0.53664215	     -0.04809637	      1.15889467	      0.01627177	     -2.38026868	     -0.39915343	     -0.03821100	      1.12472465	      0.01963015	      2.72374530	    -15.15526130	     -7.49999987	     -0.51081663	      1.33723241	      0.56383931	      3.75075934	      0.06546310	     -2.04824600	    -20.66922033	     -7.49999987	     -3.97124556	     -3.46025607	     -0.51306197	      5.08679292	    -12.64764172	     46.71970941	     34.81962967	     63.50927738	      6.77002135	    -11.58314308	     51.76242254	     28.24003410	     47.54332836
      2.18333330	      1.32992292	      0.03860085	      0.54325004	     -0.04913010	      1.16107495	      0.01614788	     -2.34535772	     -0.37571182	      0.11580731	      1.06813605	      0.01864249	      2.67153991	    -15.30441536	     -7.49999987	     -0.47781097	      1.32091726	      0.50038471	      3.68157925	      0.06425568	     -1.94784626	    -20.49647677	     -7.49999987	     -3.97071895	     -3.44951118	     -0.52965602	      5.27274759	    -12.61948464	     47.24584458	     34.50888313	     63.86992453	      6.95272839	    -11.61280507	     52.72142549	     28.06625721	     46.29541719
      2.20000000	      1.46268528	      0.04908044	      0.59588839	     -0.04908351	      1.16095222	      0.01626948	     -2.52941178	     -0.39224664	     -0.11645684	      1.09824278	      0.01916795	      2.74822062	    -15.05769577	     -7.49999987	     -0.61413358	      1.33844571	      0.57623541	      3.64995236	      0.06370369	     -2.05255263	    -20.48479389	     -7.49999987	     -4.18740652	     -3.46791970	     -0.57361024	      5.21457621	    -12.62136083	     46.88200924	     34.76505317	     63.54240954	      7.01008023	    -11.57892095	     52.34842465	     28.03405164	     46.72166249
      2.21666670	      1.46579488	      0.06563616	      0.57063784	     -0.04824747	      1.16065608	      0.01587690	     -2.51308734	     -0.38800736	     -0.06796399	      1.10266176	      0.01924508	      2.83364930	    -14.97236273	     -7.49999987	     -0.60249547	      1.36671245	      0.53310199	      3.61274521	      0.06305430	     -1.97462931	    -20.34969479	     -7.49999987	     -4.21060318	     -3.49174778	     -0.44500669	      5.12935914	    -12.58885629	     46.54202310	     34.75799241	     64.22976523	      7.28423592	    -11.67910202	     54.21481175	     28.11608616	     42.27110828
      2.23333330	      1.47778927	      0.06727556	      0.57044247	     -0.04714358	      1.16076375	      0.01601334	     -2.53853827	     -0.37204837	      0.10989464	      1.08406192	      0.01892045	      2.90815413	    -14.89295438	     -7.49999987	     -0.63498005	      1.36284355	      0.55368158	      3.58029093	      0.06248786	     -1.96561383	    -20.19778417	     -7.49999987	     -4.21911832	     -3.50894070	     -0.51273922	      5.17440243	    -12.50716662	     46.63395211	     34.62678563	     64.14244545	      7.11432863	    -11.68383513	     53.36589409	     28.13314067	     44.78024966
      2.25000000	      1.52190659	      0.09479314	      0.60201129	     -0.04716204	      1.16053508	      0.01571980	     -2.59946446	     -0.40266023	      0.06895049	      1.09036665	      0.01903049	      3.06274368	    -14.63775166	     -7.49999987	     -0.70977768	      1.39429077	      0.63269981	      3.50160581	      0.06111455	     -1.94189186	    -20.15049404	     -7.49999987	     -4.31225941	     -3.55449237	     -0.54884877	      5.11412043	    -12.52261210	     46.55114284	     34.83316877	     63.80576305	      7.01319565	    -11.69665737	     52.81345903	     28.22984694	     45.98633041
